<?xml version="1.0" encoding="utf-8" ?><svg xmlns="http://www.w3.org/2000/svg" xmlns:xlink="http://www.w3.org/1999/xlink" width="568" height="565" viewBox="0 0 568 565"><path fill="#193A54" d="M25.7163 269.486C27.0463 245.882 30.9984 222.499 37.4995 199.768C37.9932 198.005 38.4331 196.315 38.865 194.526C39.2561 192.907 39.6114 190.917 40.2156 189.373C43.8736 180.029 48.1318 170.871 51.9863 161.602C53.4819 158.006 56.7388 154.213 58.44 150.621C71.7728 126.069 88.8862 104.108 109.611 85.3633C112.535 82.7181 115.619 80.3095 118.609 77.7472C121.191 75.5929 123.496 73.3587 126.221 71.2993C167.395 40.0337 216.772 21.4162 268.337 17.7139C280.234 16.8865 286.293 16.5795 298.174 17.296C328.769 18.9416 358.84 25.9304 387.025 37.9459C395.251 41.4147 404.712 45.4189 412.209 50.3989C418.767 54.7559 425.104 59.3866 431.821 63.5388C443.93 72.2004 455.806 82.5565 466.372 93.0186C471.854 98.4467 478.343 105.964 483.197 112.004C512.826 148.377 532.376 191.899 539.888 238.208C542.386 253.097 544.169 271.141 543.3 286.22C542.556 299.125 542.263 312.502 540.258 325.215C533.854 367.293 517.371 407.199 492.213 441.53C484.346 452.481 476.571 462.04 466.84 471.409C463.994 474.149 461.319 477.091 458.321 479.712C406.015 524.585 338.292 547.321 269.507 543.101C198.125 538.027 135.561 511.434 88.9124 456.058C56.9355 418.098 36.8041 373.664 29.1209 324.785C28.1379 318.531 25.8655 307.897 26.0502 301.831C24.7835 295.037 25.1553 276.562 25.7163 269.486ZM293.634 523.539C311.104 522.915 328.472 520.595 345.494 516.612C373.805 509.808 406.694 495.028 430.12 477.719C440.222 470.255 450.594 459.509 459.151 450.303C465.191 443.816 470.458 436.613 475.796 429.549C477.309 427.547 478.497 424.881 479.995 422.81C485.816 414.764 491.027 406.156 495.664 397.356C515.707 358.837 525.371 315.761 523.704 272.371C522.852 251.823 519.716 231.433 514.353 211.579C504.092 175.819 485.998 142.793 461.384 114.898C414.526 62.4704 345.919 33.3912 275.681 35.6251C255.533 36.3019 238.095 39.5273 218.813 45.2218C176.86 57.162 139.002 80.423 109.392 112.455C94.0273 128.879 81.6663 146.209 71.6723 166.375C69.8868 169.978 68.8266 173.731 67.2003 177.207C55.9895 201.164 49.3436 227.076 47.1471 253.423C46.6157 258.515 46.0169 263.552 45.7009 268.667C45.4464 272.785 45.954 277.136 45.7452 281.207C45.2781 290.313 46.2239 298.579 46.9616 307.579C48.5492 326.948 52.8898 345.835 58.7917 364.321C59.9442 367.979 62.2371 371.474 63.6673 375.037C65.9215 381.142 68.1689 386.709 70.8642 392.626C72.5941 396.423 74.6957 399.401 76.5085 402.926C78.4652 406.73 79.8288 410.002 82.0436 413.797C86.7223 421.814 92.1905 429.798 97.7709 437.212C101.85 442.631 107.303 447.965 111.892 452.977C115.668 457.1 119.209 460.842 123.23 464.716C128.74 470.14 134.872 474.54 141.144 479.013C145.374 482.029 149.613 485.323 154.227 487.796C161.192 491.529 168.259 495.009 175.068 499.05C177.356 500.407 180.698 501.253 183.092 502.528C185.84 503.794 188.738 505.395 191.472 506.561C194.886 507.922 198.415 509.208 201.899 510.38C204.767 511.346 207.888 512.865 210.771 513.634C222.004 516.627 234.067 519.062 245.548 520.873C261.337 523.364 277.697 523.864 293.634 523.539Z"/><path fill="#37BEB9" d="M53.7082 311.695C52.5758 309.515 52.2446 298.773 52.0462 295.884C51.9628 292.331 51.4253 288.671 51.485 285.125C52.1222 247.29 58.2297 209.184 75.2492 175.063C76.3635 172.528 78.9559 169.606 79.9761 167.168C85.7556 153.357 95.478 142.156 104.567 130.456C106.296 128.231 108.916 126.157 110.649 123.976C115.148 118.318 120.092 113.833 125.727 109.35C129.413 106.324 132.97 102.385 136.811 99.4345C140.322 96.7382 144.058 94.1928 147.649 91.5947C176.754 70.3393 207.944 58.7759 243.374 53.091C269.474 48.9034 293.259 48.7328 319.341 53.5002C327.996 55.0824 334.583 56.2543 343.227 58.8851C350.403 61.069 355.738 63.1779 362.648 65.9325C379.166 72.4127 394.808 80.9347 409.21 91.3C448.652 120.205 482.67 165.117 490.578 214.404C491.302 220.21 492.696 226.562 492.757 232.385C492.937 249.469 489.636 266.766 478.929 280.535C469.308 292.908 454.731 300.817 439.227 302.72C428.479 304.039 417.706 302.8 406.976 302.198C403.044 301.981 393.422 299.447 390.239 299.912C389.724 300.657 389.891 300.807 389.82 301.863C389.769 311.973 389.471 322.578 389.579 332.53C389.739 347.166 385.814 351.458 373.581 358.302C367.206 361.869 359.734 366.236 353.353 370.025C340.326 377.864 327.222 385.575 314.043 393.156C307.609 396.9 301.327 401.022 294.627 404.255C286.632 408.114 279.937 407.335 272.193 403.38C261.278 397.807 251.096 391.031 240.515 384.894L199.916 361.277C195.66 358.757 188.227 355.384 185.048 352.062C178.295 345.005 179.244 333.341 179.2 324.357C179.193 318.565 179.145 312.773 179.056 306.982C178.248 306.81 177.995 306.903 177.307 307.372C166.674 314.631 158.748 331.777 156.902 344.123C153.169 369.084 163.448 393.215 178.119 412.909C205.059 449.075 248.739 472.274 292.979 478.669C345.877 486.779 399.813 473.259 442.633 441.156C453.224 431.966 464.129 423.748 472.535 412.52C473.777 410.861 475.464 409.292 476.79 407.638C478.332 405.714 479.652 403.328 481.363 401.613L481.819 401.634C484.131 405.7 467.272 427.069 463.896 430.27C457.733 438.308 453.016 443.475 445.402 450.135C431.988 461.869 416.972 472.333 401.043 480.406C392.465 484.754 381.63 487.758 372.472 490.91C328.999 502.622 281.071 498.39 239.418 481.637C217.724 472.911 196.979 459.027 179.701 443.096C176.075 439.753 172.171 434.64 168.817 430.935C156.11 416.893 146.875 400.552 141.863 382.268C137.469 366.518 134.634 339.867 142.973 325.053C145.444 316.44 152.886 307.43 157.884 300.337C155.941 301.07 153.715 302.191 151.807 303.092C147.264 305.832 142.908 308.56 138.964 312.143C130.931 319.44 125.165 330.706 122.599 341.151C116.494 365.991 125.575 395.699 138.589 417C165.766 461.482 209.849 490.26 260.166 502.074C282.898 507.411 306.005 507.681 329.143 505.482C343.304 503.473 356.163 500.503 369.774 496.186C373.879 494.884 378.186 494.043 382.298 492.714C374.215 498.628 369.151 500.246 359.54 503.073C355.082 504.385 351.75 505.921 346.967 506.848C293.877 521.029 237.547 516.768 187.194 494.763C179.411 491.306 171.014 485.774 163.652 481.36C145.666 470.574 129.444 456.392 115.578 440.678C100.675 423.789 87.9374 402.523 79.5553 381.655C76.9169 375.086 74.8823 368.208 72.9166 361.413C56.3202 309.611 63.8591 249.881 85.0559 200.472C89.5197 190.067 97.1592 175.337 103.998 166.002C128.501 132.555 163.008 107.555 201.616 92.8094C214.301 88.0331 227.452 84.6 240.853 82.5665C281.92 75.6189 324.125 81.0205 362.119 98.0868C378.426 105.418 394.447 115.589 408.073 127.096C410.867 129.346 413.874 131.375 416.528 133.797C450.993 165.235 481.992 220.234 460.841 267.168C458.93 272.992 456.903 274.265 454.58 279.079C462.52 275.111 467.237 268.476 471.107 260.786C475.774 248.809 476.792 241.451 476.368 228.669C475.645 206.883 468.705 187.489 457.974 168.698C454.122 161.582 450.115 154.856 445.158 148.454C402.357 93.1788 338.162 63.3452 268.571 65.6619C220.822 67.6521 175.108 85.5498 138.698 116.509C131.55 122.658 124.254 129.763 118.178 136.921C116.774 138.574 115.171 140.21 113.684 141.798C109.577 147.101 105.554 152.468 101.615 157.897C76.9181 191.662 61.1471 242.113 58.9874 283.81C58.3609 297.406 58.9437 311.031 60.7291 324.524C61.2637 328.577 61.9612 333.816 62.77 337.826C64.2367 345.099 65.7585 351.47 66.1059 358.981C63.7985 354.358 63.0611 351.208 61.4051 346.439C57.4147 334.948 54.8881 323.828 53.7082 311.695ZM115.209 412.212C114.735 411.792 114.134 410.329 113.841 409.697C109.545 400.276 107.141 389.389 104.927 379.273C101.713 364.594 102.021 344.944 106.327 330.672C113.187 307.94 134.839 288.366 157.618 282.493C164.499 280.719 172.013 280.161 179.113 278.76C179.33 280.254 179.403 306.27 179.056 306.982C179.145 312.773 179.193 318.565 179.2 324.357C179.244 333.341 178.295 345.005 185.048 352.062C188.227 355.384 195.66 358.757 199.916 361.277L240.515 384.894C251.096 391.031 261.278 397.807 272.193 403.38C279.937 407.335 286.632 408.114 294.627 404.255C301.327 401.022 307.609 396.9 314.043 393.156C327.222 385.575 340.326 377.864 353.353 370.025C359.734 366.236 367.206 361.869 373.581 358.302C385.814 351.458 389.739 347.166 389.579 332.53C389.471 322.578 389.769 311.973 389.82 301.863C389.458 298.735 389.253 272.819 389.847 270.88C389.874 272.805 389.492 280.343 390.933 280.984C407.49 288.351 429.453 282.994 440.117 268.406C450.997 253.521 451.896 239.367 449.621 221.952C448.12 212.116 444.028 202.472 439.746 193.326C424.648 161.016 396.685 138.323 366.659 120.487C358.363 115.671 349.167 112.604 340.549 108.829C329.928 104.176 323.177 102.961 312.153 100.799C288.025 96.0678 264.396 96.129 240.096 100.184C205.647 105.933 173.406 121.862 147.45 145.207C136.479 154.976 128.371 163.461 119.763 175.478C93.8143 212.039 81.6523 258.692 81.7035 303.22C81.7146 312.924 82.1715 321.741 83.6076 331.226C87.2455 355.253 93.2509 377.98 105.023 399.411C107.911 404.668 111.104 410.08 114.506 415.059C115.604 416.722 119.417 422.402 120.098 423.834C122.442 426.709 123.214 429.061 126.384 431.666L126.241 431.37L125.996 430.881C123.149 425.077 117.946 418.998 115.209 412.212Z"/><path fill="#193A54" d="M179.113 278.76C179.307 270.22 178.922 261.598 179.066 253.075C179.199 245.263 178.028 233.849 183.764 227.779C184.896 226.592 186.174 225.553 187.568 224.687C189.758 223.334 192.245 222.326 194.518 220.991L235.602 197.046L260.982 182.095C268.942 177.374 273.878 172.843 283.582 172.566C292.512 172.312 297.393 175.848 304.808 180.231C308.135 182.198 311.412 184.171 314.684 186.121L345.417 204.192L367.903 217.265C389.302 229.667 389.598 228.301 389.633 253.1C389.644 259.027 389.715 264.954 389.847 270.88C389.253 272.819 389.458 298.735 389.82 301.863C389.769 311.973 389.471 322.578 389.579 332.53C389.739 347.166 385.814 351.458 373.581 358.302C367.206 361.869 359.734 366.236 353.353 370.025C340.326 377.864 327.222 385.575 314.043 393.156C307.609 396.9 301.327 401.022 294.627 404.255C286.632 408.114 279.937 407.335 272.193 403.38C261.278 397.807 251.096 391.031 240.515 384.894L199.916 361.277C195.66 358.757 188.227 355.384 185.048 352.062C178.295 345.005 179.244 333.341 179.2 324.357C179.193 318.565 179.145 312.773 179.056 306.982C179.403 306.27 179.33 280.254 179.113 278.76ZM215.144 250.51C215.645 254.745 215.516 260.604 215.557 265.008C215.646 274.675 215.639 284.341 215.537 294.008L215.542 314.03C215.545 318.515 215.683 323.766 215.116 328.157C231.476 337.134 248.397 347.689 264.6 357.2L275.659 363.623C277.626 364.784 282.515 368.082 284.483 368.104C289.823 365.531 298.301 360.306 303.664 357.177L337.994 337.107C343.064 334.148 348.358 330.66 353.621 328.128C353.243 314.676 353.479 300.375 353.489 286.837C353.496 275.078 353.192 262.081 353.582 250.461C350.117 249.529 341.694 243.945 338.698 242.269C331.847 238.437 287.461 211.165 284.278 210.778C278.907 213.143 270.628 218.344 265.314 221.439L231.51 241.206C228.093 243.225 218.304 249.107 215.144 250.51ZM283.95 393.911C288.495 392.82 298.698 385.938 303.229 383.329C316.515 375.842 329.698 368.175 342.777 360.33L363.037 348.446C367.067 346.073 371.717 343.622 375.396 340.829C375.746 336.64 375.567 329.063 375.564 324.751L375.518 295.893C372.206 295.508 371.47 294.595 367.555 294.769C367.754 296.535 367.521 303.77 367.518 305.945L367.511 321.998C367.507 326.4 367.661 331.452 366.843 335.732L320.771 362.756C313.687 367.003 306.557 371.172 299.383 375.264C294.228 378.262 289.439 381.329 284.02 383.836C277.535 380.826 272.554 377.082 266.507 373.68C257.931 368.857 249.575 363.879 241.08 358.955L215.683 344.199C211.667 341.891 205.395 338.835 202.1 336.046C201.181 330.611 201.398 322.386 201.426 316.782C201.471 309.317 201.46 301.852 201.394 294.387C198.613 294.711 195.807 294.311 193.877 295.821C193.331 296.69 193.473 297.494 193.478 298.552C193.232 308.042 193.731 318.048 193.442 327.626C193.298 332.393 193.59 336.894 192.973 341.699C194.161 342.164 195.151 342.777 196.261 343.384C220.445 356.592 243.903 371.216 267.784 384.981C272.089 387.462 279.503 392.625 283.95 393.911ZM193.572 237.154C193.194 249.022 193.533 262.192 193.483 274.197L193.668 278.94C195.455 279.522 199.937 280.877 201.182 279.126C201.6 267.811 201.22 255.948 201.776 244.633C201.907 241.975 208.997 238.806 211.018 237.404C216.761 233.782 222.895 230.692 228.745 227.278L262.037 207.609C266.994 204.671 278.956 196.893 283.753 195.587C289.81 197.05 294.692 200.93 300.118 203.803C310.278 209.182 319.84 215.551 329.735 221.348L351.396 233.9C355.832 236.487 363.267 240.573 366.873 243.955C367.766 247.339 367.535 252.117 367.557 255.704L367.595 271.797C367.595 273.514 367.793 278.478 367.628 279.886C368.99 280.217 373.473 280.243 374.953 279.794C375.353 279.033 375.302 278.005 375.361 277.082C375.643 263.859 375.713 250.633 375.571 237.408C359.012 228.371 340.467 217.173 324 207.43C316.733 203.08 309.425 198.799 302.077 194.589C297.489 191.925 289.475 186.744 284.738 185.504C281.195 184.576 267.347 193.948 263.855 196.026L235.622 212.627L209.253 227.991C203.967 231.028 198.688 233.82 193.572 237.154Z"/><path fill="#193A54" d="M283.753 195.587C289.81 197.05 294.692 200.93 300.118 203.803C310.278 209.182 319.84 215.551 329.735 221.348L351.396 233.9C355.832 236.487 363.267 240.573 366.873 243.955C367.766 247.339 367.535 252.117 367.557 255.704L367.595 271.797C367.595 273.514 367.793 278.478 367.628 279.886C368.99 280.217 373.473 280.243 374.953 279.794C375.353 279.033 375.302 278.005 375.361 277.082C375.849 278.303 375.672 293.567 375.518 295.893C372.206 295.508 371.47 294.595 367.555 294.769C367.754 296.535 367.521 303.77 367.518 305.945L367.511 321.998C367.507 326.4 367.661 331.452 366.843 335.732L320.771 362.756C313.687 367.003 306.557 371.172 299.383 375.264C294.228 378.262 289.439 381.329 284.02 383.836C277.535 380.826 272.554 377.082 266.507 373.68C257.931 368.857 249.575 363.879 241.08 358.955L215.683 344.199C211.667 341.891 205.395 338.835 202.1 336.046C201.181 330.611 201.398 322.386 201.426 316.782C201.471 309.317 201.46 301.852 201.394 294.387C198.613 294.711 195.807 294.311 193.877 295.821C193.331 296.69 193.473 297.494 193.478 298.552C193.108 296.319 193.067 275.606 193.483 274.197L193.668 278.94C195.455 279.522 199.937 280.877 201.182 279.126C201.6 267.811 201.22 255.948 201.776 244.633C201.907 241.975 208.997 238.806 211.018 237.404C216.761 233.782 222.895 230.692 228.745 227.278L262.037 207.609C266.994 204.671 278.956 196.893 283.753 195.587ZM215.144 250.51C215.645 254.745 215.516 260.604 215.557 265.008C215.646 274.675 215.639 284.341 215.537 294.008L215.542 314.03C215.545 318.515 215.683 323.766 215.116 328.157C231.476 337.134 248.397 347.689 264.6 357.2L275.659 363.623C277.626 364.784 282.515 368.082 284.483 368.104C289.823 365.531 298.301 360.306 303.664 357.177L337.994 337.107C343.064 334.148 348.358 330.66 353.621 328.128C353.243 314.676 353.479 300.375 353.489 286.837C353.496 275.078 353.192 262.081 353.582 250.461C350.117 249.529 341.694 243.945 338.698 242.269C331.847 238.437 287.461 211.165 284.278 210.778C278.907 213.143 270.628 218.344 265.314 221.439L231.51 241.206C228.093 243.225 218.304 249.107 215.144 250.51Z"/><path fill="#37BEB9" d="M193.478 298.552C193.108 296.319 193.067 275.606 193.483 274.197L193.668 278.94C195.455 279.522 199.937 280.877 201.182 279.126C201.475 279.922 201.624 293.295 201.394 294.387C198.613 294.711 195.807 294.311 193.877 295.821C193.331 296.69 193.473 297.494 193.478 298.552Z"/><path fill="#37BEB9" d="M375.361 277.082C375.849 278.303 375.672 293.567 375.518 295.893C372.206 295.508 371.47 294.595 367.555 294.769C367.277 294.164 367.389 281.139 367.628 279.886C368.99 280.217 373.473 280.243 374.953 279.794C375.353 279.033 375.302 278.005 375.361 277.082Z"/><path fill="#93D5D5" d="M53.7082 311.695C54.5969 313.317 54.4706 314.418 54.8551 315.903C55.8617 319.792 58.0333 336.261 59.7764 338.734L60.1744 338.7C60.5684 338.054 60.8942 336.691 60.8572 336.035C60.7603 334.318 61.6272 331.439 60.0575 330.29C60.1238 330.339 60.0109 327.55 59.9911 327.259C59.8603 325.323 59.1727 323.531 58.7195 321.66C58.202 319.182 58.2582 316.343 58.1133 313.809C57.8054 308.427 57.4686 303.07 57.4542 297.68C57.4285 251.263 70.369 205.761 94.8169 166.306C96.808 163.094 111.25 142.371 113.684 141.798C109.577 147.101 105.554 152.468 101.615 157.897C76.9181 191.662 61.1471 242.113 58.9874 283.81C58.3609 297.406 58.9437 311.031 60.7291 324.524C61.2637 328.577 61.9612 333.816 62.77 337.826C64.2367 345.099 65.7585 351.47 66.1059 358.981C63.7985 354.358 63.0611 351.208 61.4051 346.439C57.4147 334.948 54.8881 323.828 53.7082 311.695Z"/><path fill="#93D5D5" d="M329.143 505.482C343.304 503.473 356.163 500.503 369.774 496.186C373.879 494.884 378.186 494.043 382.298 492.714C374.215 498.628 369.151 500.246 359.54 503.073C355.082 504.385 351.75 505.921 346.967 506.848L346.862 506.578C347.558 505.465 353.257 504.694 355.098 503.552C355.021 502.777 355.056 502.819 354.6 502.196C353.44 502.196 352.281 502.151 351.137 502.316C349.728 503.611 349.247 503.602 347.351 503.72L346.811 503.749L347.698 503.744C345.715 504.18 330.655 505.96 329.143 505.482Z"/><path fill="#93D5D5" d="M442.633 441.156C453.224 431.966 464.129 423.748 472.535 412.52C473.777 410.861 475.464 409.292 476.79 407.638C478.332 405.714 479.652 403.328 481.363 401.613L481.819 401.634C484.131 405.7 467.272 427.069 463.896 430.27L463.698 429.817C467.294 425.706 469.565 421.686 472.738 417.32C473.491 416.283 474.025 415.317 473.076 414.219C471.322 414.723 470.014 417.893 467.923 419.752C461.688 425.297 455.656 431.179 449.249 436.55C447.975 437.618 444.34 440.656 443.091 441.392L442.633 441.156Z"/><path fill="#CAEEE4" d="M115.209 412.212C116.175 413.071 117.242 415.006 117.886 416.181C123.673 426.752 130.643 435.559 138.178 444.915C138.599 446.359 139.572 447.483 140.484 448.666C138.356 447.562 138.854 446.805 137.061 446.335C133.989 443.685 120.335 426.704 120.098 423.834C122.442 426.709 123.214 429.061 126.384 431.666L126.241 431.37L125.996 430.881C123.149 425.077 117.946 418.998 115.209 412.212Z"/><path fill="#F3F7F5" d="M471.107 260.786L471.351 261.24C467.689 270.73 459.78 278.495 450.568 282.61C450.273 282.742 449.976 282.869 449.677 282.992L449.895 282.705C452.241 279.668 454.959 277.328 457.112 274.084C458.166 272.497 459.692 267.854 460.841 267.168C458.93 272.992 456.903 274.265 454.58 279.079C462.52 275.111 467.237 268.476 471.107 260.786Z"/><path fill="#F3F7F5" d="M151.807 303.092C152.378 301.451 160.039 298.294 162.024 297.555C157.957 302.379 154.362 305.912 150.649 311.254C148.922 313.738 143.884 324.092 142.973 325.053C145.444 316.44 152.886 307.43 157.884 300.337C155.941 301.07 153.715 302.191 151.807 303.092Z"/><path fill="#93D5D5" d="M138.178 444.915C139.541 446.415 143.07 450.016 143.301 451.814C141.971 452.033 138.013 447.525 137.061 446.335C138.854 446.805 138.356 447.562 140.484 448.666C139.572 447.483 138.599 446.359 138.178 444.915Z"/></svg>