<?xml version="1.0" encoding="utf-8" ?><svg xmlns="http://www.w3.org/2000/svg" xmlns:xlink="http://www.w3.org/1999/xlink" width="615" height="143" viewBox="0 0 615 143"><path fill="#1B2C44" d="M147.3 43.3338C151.617 43.0433 157.905 43.2391 162.274 43.3432C155.45 51.4667 147.378 59.8787 140.264 68.1455C144.92 74.8649 150.213 82.4615 155.145 88.9371C157.784 92.8104 160.617 96.233 163.187 100.283C159.544 100.829 151.553 100.402 147.516 100.273C147.038 99.004 146.341 97.893 145.559 96.7937C140.838 90.152 136.235 83.443 131.456 76.8407C130.156 78.3851 127.063 81.389 125.485 83.0649C125.526 88.3985 125.718 95.1504 125.174 100.375C121.111 100.44 117.047 100.443 112.984 100.383L113.065 63.197C113.049 59.5805 112.772 46.3665 113.223 43.7209L113.924 43.3883C117.433 43.1746 121.784 43.2991 125.366 43.3242C125.84 51.0573 125.118 59.006 125.932 66.8855C131.219 61.7786 135.692 56.2981 140.553 50.7907C142.762 48.288 144.867 45.6113 147.3 43.3338Z"/><path fill="#20C8BE" d="M477.986 57.3936C485.877 55.7948 494.018 58.564 499.3 64.6435C504.581 70.723 506.187 79.1738 503.505 86.7683C500.823 94.3628 494.266 99.928 486.339 101.338C474.284 103.483 462.747 95.5286 460.459 83.4947C458.172 71.4609 465.986 59.825 477.986 57.3936ZM484.433 91.8668C494.444 88.4426 493.403 71.3974 485.289 66.7718C483.287 66.6448 482.206 66.5873 480.215 66.7591C474.513 68.8025 473.779 72.5575 473.396 78.0633C472.909 85.0737 475.773 93.4076 484.433 91.8668Z"/><path fill="#20C8BE" d="M373.325 43.549C386.944 43.4579 400.564 43.4543 414.184 43.538C414.04 46.6408 414.102 50.3988 414.076 53.5513C405.841 53.1925 394.007 53.4576 385.666 53.5552C385.944 56.4856 385.823 63.4464 385.755 66.6111C392.395 67.1289 402.857 67.1887 409.616 66.9537L409.525 77.0299C401.633 76.8119 393.736 76.7948 385.843 76.9787C385.953 79.8726 385.978 87.6184 385.7 90.2567C394.323 90.763 405.277 90.376 414.154 90.429L414.193 100.825C401.047 100.403 386.578 100.667 373.331 100.628C373.039 81.9233 373.23 62.2917 373.325 43.549Z"/><path fill="#1B2C44" d="M178.356 57.4716C184.472 56.6647 191.625 57.9476 196.26 62.2482C202.026 67.5984 202.642 75.0161 202.768 82.3503C192.703 82.5971 182.605 82.2854 172.432 82.5951C173.834 85.9104 174.439 89.2566 177.972 91.5131C179.756 92.6408 181.912 93.0187 183.972 92.5645C186.918 91.9118 189.145 89.9038 190.725 87.4206C193.328 87.4194 195.93 87.4502 198.533 87.5132C199.854 87.6235 201.226 87.8041 202.548 87.9582C199.963 95.2074 195.96 99.0341 188.055 100.886C166.24 105.999 153.669 83.6733 164.376 65.7778C167.296 60.8981 172.69 58.5359 178.356 57.4716ZM172.622 74.2198C176.076 74.317 179.705 74.4692 183.145 74.4713C185.444 74.4729 188.195 74.3998 190.456 74.4894C189.082 68.9685 186.743 65.1762 180.352 65.8322C175.029 67.3152 174.433 69.338 172.622 74.2198Z"/><path fill="#1B2C44" d="M304.365 57.4791C311.238 56.6602 318.748 58.4977 323.186 64.1227C327.458 69.5379 327.985 75.7622 327.861 82.3921C319.532 81.8424 306.355 82.4858 297.78 82.5446C298.784 85.8049 299.638 89.1778 302.57 91.3261C304.283 92.5747 306.424 93.085 308.516 92.7431C311.886 92.2117 314.115 89.9208 316.024 87.3201C318.905 87.3983 321.503 87.4888 324.387 87.7256C324.874 87.7041 326.994 88.0167 327.601 88.0953C324.742 96.0405 319.832 99.9376 311.403 101.31C305.419 102.232 299.15 101.28 294.108 97.7344C284.326 90.857 283.633 74.3242 290.156 65.0871C293.596 60.216 298.583 58.3613 304.365 57.4791ZM298.188 74.2068L308.347 74.407C310.803 74.387 313.258 74.3446 315.713 74.2799C314.32 68.67 311.959 65.3621 305.528 65.8263C300.559 67.1825 299.627 69.5811 298.188 74.2068Z"/><path fill="#1B2C44" d="M261.6 57.474C267.637 56.7416 273.639 57.8761 277.484 63.0339C278.804 64.8244 279.697 66.8931 280.095 69.0818C280.852 73.0718 280.734 95.8827 280.105 100.186C276.372 100.354 272.317 100.304 268.58 100.254C268.465 94.5279 269.42 75.3621 267.86 71.2944C267.186 69.5357 265.929 68.0314 264.189 67.2579C261.791 66.1919 259.102 66.6979 256.746 67.5959C251.555 71.069 252.577 74.7491 252.476 80.2689C252.437 82.3928 252.506 84.5443 252.516 86.6699C252.554 91.2091 252.448 95.7482 252.197 100.281C248.309 100.354 244.42 100.371 240.532 100.331L240.448 58.2963C244.167 58.2142 247.872 58.2999 251.591 58.3618L251.759 62.9722C254.871 59.6631 257.242 58.431 261.6 57.474Z"/><path fill="#20C8BE" d="M415.8 58.4253C420.214 58.2246 424.635 58.2464 429.047 58.4906C430.731 64.7954 433.577 71.7966 435.302 78.2115C436.067 81.0569 437.066 83.403 437.531 86.4149C441.003 77.8734 443.226 67.2051 446.786 58.5299C450.99 58.3993 455.197 58.3974 459.4 58.5241C458.652 61.9301 456.848 66.5417 455.637 69.8961C455.489 70.2262 455.377 70.5506 455.248 70.8864C451.484 80.7086 448.098 90.7239 444.284 100.522C439.667 100.708 435.418 100.675 430.791 100.613C427.934 91.654 424.467 82.7785 421.26 73.938C420.441 71.68 415.293 59.9505 415.8 58.4253Z"/><path fill="#1B2C44" d="M337.149 43.0943C339.78 43.0079 343.054 43.1552 345.73 43.203C345.691 49.3418 346.246 97.4397 345.306 99.9498C344.739 100.418 343.786 100.294 343.01 100.288L333.67 100.385C333.503 89.6914 333.481 78.996 333.605 68.3019C333.65 60.0889 333.594 51.4982 333.928 43.3159L337.149 43.0943Z"/><path fill="#1B2C44" d="M230.614 57.4633C231.968 57.3114 234.285 57.329 235.729 57.3036C235.719 60.9056 235.827 64.5837 235.48 68.1643C225.444 68.042 220.281 70.219 220.441 81.3033C220.527 87.3135 220.647 94.2858 220.307 100.248C218.129 100.31 210.316 100.604 208.526 100.121C208.337 86.6263 208.219 72.011 208.653 58.5323C211.972 58.1195 216.757 58.2644 220.181 58.2769C220.303 60.338 220.094 63.036 219.985 65.1499C222.642 60.4465 225.247 58.4354 230.614 57.4633Z"/></svg>